# xmcd
#
# Track frame offsets:
#	150
#	16455
#	30238
#	46876
#	63001
#	79196
#	94118
#	109686
#	127929
#	145136
#	161865
#	178697
#	195412
#	214487
# Disc length: 3081 seconds
# Revision: 1
# Processed by: cddbd v1.5.1PL0 Copyright (c) Steve Scherf et al.
#
# Submitted via: libkcddb 0.21
#
DISCID=b50c070e
DTITLE=Bom Balanco - Balanco do Povo
DYEAR=2000
DGENRE=Pagode
TTITLE0=Bom Balanco e Show
TTITLE1=Pode Rebolar
TTITLE2=Caterete
TTITLE3=Calor Retado
TTITLE4=Engracadinha
TTITLE5=Bate Bum
TTITLE6=Balanco do Povo
TTITLE7=Rosa
TTITLE8=Amo Voce
TTITLE9=A forca do Ile
TTITLE10=A Mulherada
TTITLE11=Vaquejada
TTITLE12=Mas que Vai Vai
TTITLE13=I Love You Mon Amour
EXTD=Pagode
EXTT0=
EXTT1=
EXTT2=
EXTT3=
EXTT4=
EXTT5=
EXTT6=
EXTT7=
EXTT8=
EXTT9=
EXTT10=
EXTT11=
EXTT12=
EXTT13=
PLAYORDER=
